IKResults
version=1
nRows=11
nColumns=40
inDegrees=yes

Units are S.I. units (second, meters, Newtons, ...)
Angles are in degrees.

endheader
time	pelvis_tilt	pelvis_list	pelvis_rotation	pelvis_tx	pelvis_ty	pelvis_tz	hip_flexion_r	hip_adduction_r	hip_rotation_r	knee_angle_r	knee_angle_r_beta	ankle_angle_r	subtalar_angle_r	mtp_angle_r	hip_flexion_l	hip_adduction_l	hip_rotation_l	knee_angle_l	knee_angle_l_beta	ankle_angle_l	subtalar_angle_l	mtp_angle_l	lumbar_extension	lumbar_bending	lumbar_rotation	arm_flex_r	arm_add_r	arm_rot_r	elbow_flex_r	pro_sup_r	wrist_flex_r	wrist_dev_r	arm_flex_l	arm_add_l	arm_rot_l	elbow_flex_l	pro_sup_l	wrist_flex_l	wrist_dev_l
      1.11000000	     -1.69040861	     -0.64924416	     -2.55972756	      0.23927731	      0.92152774	      1.40746868	     23.78625145	     -1.64240391	     -7.82265523	    -28.41445855	     -0.49592586	      7.22529743	    -12.19393345	      1.52586987	     -1.54662113	     -1.70476609	     19.09540864	     -8.21465150	     -0.14337272	     11.21471792	     -1.69322360	     -3.89419839	     -2.32881736	     -0.93788521	     -1.17506929	     -6.13504420	     -8.54593763	      1.60544939	     21.72781020	     89.95437384	      0.00000000	      0.00000000	      6.73545454	     10.09903910	      0.12833848	     32.88056586	     89.95437384	      0.00000000	      0.00000000
      1.12000000	     -1.53609494	     -0.97684084	     -2.21621466	      0.24523746	      0.92140527	      1.40727144	     23.76098843	     -1.54251403	     -9.32361325	    -26.86168308	     -0.46882481	      6.37783952	    -11.83516786	      1.03932852	     -2.05276011	     -1.35328372	     18.52858198	     -8.36392289	     -0.14597799	     11.70723740	     -1.43362865	     -3.75003742	     -2.52487527	     -0.54729748	     -1.52288295	     -6.18015623	     -8.48118690	      1.39521850	     21.52982800	     89.95437384	      0.00000000	      0.00000000	      6.79837817	     10.07131850	     -0.07485061	     33.63490563	     89.95437384	      0.00000000	      0.00000000
      1.13000000	     -1.74263212	     -0.81315132	     -2.27592313	      0.25092447	      0.92052288	      1.40718540	     24.42189408	     -1.76612483	    -10.08562846	    -25.73966128	     -0.44924184	      5.94732043	    -11.57872415	      1.02405178	     -2.20687986	     -1.56981689	     18.60818001	     -8.37571989	     -0.14618389	     11.89495807	     -1.37771908	     -3.70491372	     -2.29517177	     -0.64391790	     -1.43313116	     -6.38690941	     -8.46014494	      1.40851628	     21.47494912	     89.95437384	      0.00000000	      0.00000000	      6.94276373	      9.97692830	     -0.19311947	     34.16550227	     89.95437384	      0.00000000	      0.00000000
      1.14000000	     -1.69361247	     -1.15459050	     -1.91255083	      0.25696444	      0.92017987	      1.40698829	     24.37736731	     -1.61360490	    -11.55778640	    -24.05321620	     -0.41980782	      4.91284907	    -10.92077571	      0.58821252	     -2.62109906	     -1.19916550	     17.99662870	     -8.49086038	     -0.14819347	     12.36696098	     -1.15830174	     -3.57790580	     -2.38258644	     -0.21098824	     -1.82748134	     -6.46372973	     -8.44377505	      1.34281398	     21.32566642	     89.95437384	      0.00000000	      0.00000000	      6.91924773	      9.99476291	     -0.51144005	     34.98407540	     89.95437384	      0.00000000	      0.00000000
      1.15000000	     -1.86345305	     -1.03122296	     -1.98360955	      0.26294981	      0.91924618	      1.40709126	     24.97660846	     -1.78370209	    -12.38889753	    -23.09341707	     -0.40305616	      4.66336428	    -10.73216351	      0.57052074	     -2.82358182	     -1.35654455	     18.09870708	     -8.53617782	     -0.14898441	     12.54638852	     -1.08816310	     -3.53762933	     -2.16596463	     -0.27085738	     -1.69343258	     -6.67980925	     -8.44724202	      1.36313053	     21.25803638	     89.95437384	      0.00000000	      0.00000000	      7.03328281	      9.86257366	     -0.54311911	     35.51707381	     89.95437384	      0.00000000	      0.00000000
      1.16000000	     -1.95729525	     -1.30028649	     -1.70207324	      0.26893831	      0.91860300	      1.40712083	     25.09343201	     -1.60645501	    -13.59952584	    -21.53536064	     -0.37586295	      3.54816889	     -9.82909801	      0.35561966	     -3.01319381	     -1.04010972	     17.59855545	     -8.75839127	     -0.15286276	     12.97073838	     -0.96127292	     -3.48535569	     -2.10069009	      0.08141850	     -2.01744053	     -6.80819910	     -8.43627001	      1.36725643	     21.21107244	     89.95437384	      0.00000000	      0.00000000	      6.94948729	      9.84838166	     -0.66066085	     36.38481257	     89.95437384	      0.00000000	      0.00000000
      1.17000000	     -1.87745795	     -1.57170828	     -1.47330731	      0.27516192	      0.91812731	      1.40713364	     25.07079270	     -1.46137079	    -14.96701450	    -20.20768537	     -0.35269064	      2.84951947	     -9.14403248	     -0.04747677	     -3.40677412	     -0.72581162	     17.28461934	     -8.99408054	     -0.15697632	     13.50984737	     -0.69964289	     -3.41333783	     -2.19415706	      0.45171795	     -2.23982811	     -6.89631319	     -8.46193709	      1.43492708	     21.06698677	     89.95437384	      0.00000000	      0.00000000	      7.02690208	      9.74171245	     -0.77324679	     36.92940924	     89.95437384	      0.00000000	      0.00000000
      1.18000000	     -1.45333508	     -1.69612878	     -1.09722382	      0.28220756	      0.91807754	      1.40676357	     24.68679513	     -1.74164631	    -17.25882788	    -19.15402135	     -0.33430074	      2.30027700	     -7.50398521	     -3.70460160	     -4.48805170	     -0.71168561	     16.41418957	     -8.71387222	     -0.15208576	     13.83162242	      0.04681376	     -2.73971413	     -2.58633028	      0.67671400	     -2.58566867	     -7.05821326	     -8.50504661	      1.54904263	     20.97755744	     89.95437384	      0.00000000	      0.00000000	      7.07277048	      9.60291823	     -0.75831872	     37.45923138	     89.95437384	      0.00000000	      0.00000000
      1.19000000	     -1.70502937	     -1.82042770	     -1.01310272	      0.28833267	      0.91700158	      1.40713974	     25.12293283	     -1.56772619	    -17.94024742	    -18.14601938	     -0.31670778	      2.08387326	     -7.23557098	     -3.83646670	     -4.46576981	     -0.51570227	     16.20177926	     -9.05711798	     -0.15807653	     14.27735186	      0.15801772	     -2.70328126	     -2.29882570	      0.88140794	     -2.63225929	     -7.23943854	     -8.51081658	      1.53532219	     20.91099533	     89.95437384	      0.00000000	      0.00000000	      7.09376744	      9.50193159	     -0.87200246	     38.01471268	     89.95437384	      0.00000000	      0.00000000
      1.20000000	     -1.75587975	     -1.99334076	     -0.86331619	      0.29476300	      0.91622417	      1.40742211	     25.20163600	     -1.35547718	    -18.76125264	    -17.05599208	     -0.29768322	      2.24666063	     -6.97341605	     -4.13536179	     -4.68345989	     -0.26953830	     16.00721292	     -9.38181078	     -0.16374349	     14.71814128	      0.35885454	     -2.61117426	     -2.21111529	      1.14467363	     -2.74476356	     -7.38703838	     -8.52142778	      1.57248725	     20.78890235	     89.95437384	      0.00000000	      0.00000000	      7.14402977	      9.33994271	     -0.86127700	     38.47340875	     89.95437384	      0.00000000	      0.00000000
      1.21000000	     -1.85058400	     -2.09673090	     -0.82181974	      0.30135424	      0.91534562	      1.40793000	     25.38012013	     -1.16366627	    -19.29423707	    -16.20605073	     -0.28284894	      2.55055212	     -6.70821788	     -4.38555074	     -4.96051177	     -0.12066523	     15.87813283	     -9.51563322	     -0.16607913	     15.05393549	      0.44722050	     -2.58023048	     -2.04644940	      1.32716499	     -2.74080079	     -7.55857323	     -8.53169275	      1.62870053	     20.65432816	     89.95437384	      0.00000000	      0.00000000	      7.19767151	      9.23483713	     -0.99977434	     38.87452761	     89.95437384	      0.00000000	      0.00000000
